<?xml version="1.0" encoding="UTF-8" standalone="no"?>
<!DOCTYPE svg PUBLIC "-//W3C//DTD SVG 1.1//EN" "http://www.w3.org/Graphics/SVG/1.1/DTD/svg11.dtd">
<svg width="100%" height="100%" viewBox="0 0 66 59" version="1.1" xmlns="http://www.w3.org/2000/svg" xmlns:xlink="http://www.w3.org/1999/xlink" xml:space="preserve" xmlns:serif="http://www.serif.com/" style="fill-rule:evenodd;clip-rule:evenodd;stroke-linejoin:round;stroke-miterlimit:2;">
    <g transform="matrix(0.24,0,0,0.24,-219.829,-295.472)">
        <g transform="matrix(1,0,0,1,-265.763,495.695)">
            <path d="M1242.02,857.06L1181.72,857.06L1181.72,795.842L1242.12,795.842L1242.12,735.439L1303.34,735.439L1303.34,796.656L1242.93,796.656L1242.93,856.148L1272.01,856.148L1272.01,825.998L1364.39,825.998L1364.39,856.086L1393.79,856.086L1393.79,796.656L1332.64,796.656L1332.64,735.439L1393.86,735.439L1393.86,796.59L1455.01,796.59L1455.01,857.807L1394.48,857.807L1394.48,885.996L1424.95,885.996L1424.95,948.154L1406.99,948.154L1406.99,948.895L1394.01,948.895L1394.01,979.095L1333.62,979.095L1333.62,948.895L1303.39,948.895L1303.39,979.095L1242.03,979.095L1242.03,948.895L1239.94,948.895L1239.94,947.91L1210.84,947.91L1210.84,887.328L1242.02,887.328L1242.02,857.06Z"/>
        </g>
    </g>
</svg>
