<?xml version="1.0" encoding="UTF-8" standalone="no"?>
<!DOCTYPE svg PUBLIC "-//W3C//DTD SVG 1.1//EN" "http://www.w3.org/Graphics/SVG/1.1/DTD/svg11.dtd">
<svg width="100%" height="100%" viewBox="0 0 161 173" version="1.1" xmlns="http://www.w3.org/2000/svg" xmlns:xlink="http://www.w3.org/1999/xlink" xml:space="preserve" xmlns:serif="http://www.serif.com/" style="fill-rule:evenodd;clip-rule:evenodd;stroke-linejoin:round;stroke-miterlimit:2;">
    <g transform="matrix(1,0,0,1,-170.087,-89.4393)">
        <g transform="matrix(1,0,0,1,-46.1463,-110.157)">
            <path d="M349.276,271.953C346,269.187 340.14,270.061 338.125,271.255C328.379,277.027 318.815,278.002 308.92,271.962C293.491,262.542 279.578,251.577 272.257,234.344C268.742,226.07 266.822,217.036 274.006,210.046C281.537,202.717 290.982,197.084 302.003,200.744C315.849,205.343 329.094,205.743 343.018,201.096C354.911,197.127 369.611,204.353 375.589,216.047C378.039,226.898 374.167,236.033 368.417,244.091C363.67,250.743 358.514,254.853 358.094,260.132C357.674,265.412 365.899,275.767 365.899,275.767C367.78,277.647 367.78,280.701 365.899,282.581C364.019,284.462 360.965,284.462 359.085,282.581C359.085,282.581 352.311,274.515 349.276,271.953ZM336.334,222.39C330.094,218.006 321.252,216.997 313.817,220.036C305.746,223.335 300.651,231.354 301.99,238.81C303.97,249.83 314.784,256.517 327.581,254.634C336.305,253.351 342.228,247.022 343.244,238.128C343.21,231.915 340.557,226.32 336.334,222.39Z"/>
        </g>
        <g transform="matrix(1,0,0,1,-46.5735,-108.648)">
            <path d="M261.993,343.712C261.987,343.701 261.981,343.69 261.975,343.679C256.556,344.539 251.038,345.282 245.362,344.384C229.83,341.924 216.676,327.194 216.661,311.805C216.658,309.023 216.698,306.025 220.334,305.848C224.01,305.668 225.221,308.494 225.1,311.565C224.683,322.115 234.787,334.329 246.485,335.743C260.97,337.493 272.435,330.767 276.958,317.882C278.971,312.147 278.349,310.779 272.697,308.508C256.038,301.815 252.702,284.646 265.898,271.805C274.814,265.98 283.778,264.024 293.595,268.551C302.97,272.874 307.602,279.515 307.43,289.012C307.272,297.769 301.906,304.893 292.759,308.49C286.695,310.875 286.214,311.908 288.341,317.988C292.703,330.455 303.227,336.809 317.836,335.798C328.371,335.069 337.619,326.197 339.974,314.545C340.237,313.242 340.559,311.934 340.639,310.616C340.812,307.765 341.809,305.609 345.043,305.779C348.27,305.948 349.199,308.368 349.028,311.071C348.45,320.209 345.162,328.241 338.536,334.682C328.599,344.341 316.641,346.622 303.489,343.74C301.549,342.709 289.563,336.486 283.132,336.484C276.724,336.482 264.118,342.649 261.993,343.712Z"/>
        </g>
        <g transform="matrix(1,0,0,1,-46.5735,-108.648)">
            <path d="M303.489,343.74C301.678,345.784 302.444,348.048 302.384,350.099C302.056,361.3 294.098,369.9 283.654,370.199C272.453,370.52 264.129,362.938 263.02,351.475C262.785,349.045 263.458,346.498 261.993,343.712C264.118,342.649 276.724,336.482 283.132,336.484C289.563,336.486 301.549,342.709 303.489,343.74Z" style="fill:rgb(234,46,81);"/>
        </g>
        <g transform="matrix(1,0,0,1,-46.5735,-108.648)">
            <path d="M252.119,236.87C251.305,249.889 235.674,254.12 226.394,247.988C218.123,242.523 217.631,232.431 225.235,226.028C230.349,221.721 236.359,221.663 242.191,223.566C248.127,225.503 251.93,229.76 252.119,236.87ZM241.048,225.842C239.6,225.842 238.425,226.828 238.425,228.041C238.425,229.255 239.6,230.24 241.048,230.24C242.495,230.24 243.67,229.255 243.67,228.041C243.67,226.828 242.495,225.842 241.048,225.842Z"/>
        </g>
        <g transform="matrix(1,0,0,1,-46.5735,-108.648)">
            <path d="M331.136,225.781C335.827,231.138 336.461,235.556 333.438,239.969C330.534,244.208 324.07,246.103 318.688,244.293C313.357,242.5 310.513,238.684 310.696,233.57C310.952,226.384 319.034,221.075 326.371,223.369C327.933,223.857 329.352,224.803 331.136,225.781ZM326.392,226.233C324.945,226.233 323.77,227.218 323.77,228.431C323.77,229.645 324.945,230.63 326.392,230.63C327.84,230.63 329.015,229.645 329.015,228.431C329.015,227.218 327.84,226.233 326.392,226.233Z"/>
        </g>
    </g>
</svg>
